<?xml version="1.0" encoding="UTF-8"?>
<svg id="uuid-769f8dd8-12c5-4683-9389-25531ad948ac" data-name="Layer 2" xmlns="http://www.w3.org/2000/svg" viewBox="0 0 800 132">
  <g id="uuid-30ae071f-1d51-4b1a-a87a-b1bdf9517e6f" data-name="BRADSEC">
    <g>
      <path d="m74.07,14.67V0H0v132h74.07v-14.67h14.82v-44h-14.82v-14.67h14.82V14.67h-14.82Zm-14.81,73.33v29.33h-29.63v-44h29.63v14.67Zm0-58.67v29.33h-29.63V14.67h29.63v14.67Z" fill="#fff"/>
      <path d="m429.63,29.33v-14.67h-14.81V0h-59.26v132h59.26v-14.67h14.81v-14.67h14.82V29.33h-14.82Zm-14.81,14.67v58.67h-14.81v14.67h-14.81V14.67h14.81v14.67h14.81v14.67Z" fill="#fff"/>
      <polygon points="785.18 29.33 800 29.33 800 14.67 785.18 14.67 785.18 0 770.37 0 755.56 0 740.74 0 725.93 0 725.93 14.67 711.11 14.67 711.11 29.33 711.11 44 711.11 58.67 711.11 73.33 711.11 88 711.11 102.67 711.11 117.33 725.93 117.33 725.93 132 740.74 132 755.56 132 770.37 132 785.18 132 785.18 117.33 800 117.33 800 102.67 785.18 102.67 770.37 102.67 770.37 117.33 755.56 117.33 740.74 117.33 740.74 102.67 740.74 88 740.74 73.33 740.74 58.67 740.74 44 740.74 29.33 740.74 14.67 755.56 14.67 770.37 14.67 770.37 29.33 785.18 29.33" fill="#fff"/>
      <polygon points="192.59 0 177.78 0 162.96 0 148.15 0 133.33 0 118.52 0 118.52 14.67 148.15 14.67 162.96 14.67 177.78 14.67 177.78 29.33 177.78 44 177.78 58.67 162.96 58.67 148.15 58.67 148.15 73.33 162.96 73.33 162.96 88 177.78 88 177.78 102.67 177.78 117.33 177.78 132 192.59 132 207.41 132 207.41 117.33 207.41 102.67 207.41 88 192.59 88 192.59 73.33 192.59 58.67 207.41 58.67 207.41 44 207.41 29.33 207.41 14.67 192.59 14.67 192.59 0" fill="#fff"/>
      <polygon points="651.85 0 637.04 0 622.22 0 607.41 0 592.59 0 592.59 14.67 592.59 29.33 592.59 44 592.59 58.67 592.59 73.33 592.59 88 592.59 102.67 592.59 117.33 592.59 132 607.41 132 622.22 132 637.04 132 651.85 132 666.67 132 681.48 132 681.48 117.33 666.67 117.33 651.85 117.33 637.04 117.33 622.22 117.33 622.22 102.67 622.22 88 622.22 73.33 637.04 73.33 651.85 73.33 666.67 73.33 666.67 58.67 651.85 58.67 637.04 58.67 622.22 58.67 622.22 44 622.22 29.33 622.22 14.67 637.04 14.67 651.85 14.67 666.67 14.67 681.48 14.67 681.48 0 666.67 0 651.85 0" fill="#fff"/>
      <polygon points="548.15 0 533.33 0 518.52 0 503.7 0 488.89 0 488.89 14.67 474.07 14.67 474.07 29.33 474.07 44 474.07 58.67 488.89 58.67 488.89 73.33 503.7 73.33 518.52 73.33 533.33 73.33 533.33 88 533.33 102.67 533.33 117.33 518.52 117.33 503.7 117.33 503.7 102.67 488.89 102.67 474.07 102.67 474.07 117.33 488.89 117.33 488.89 132 503.7 132 518.52 132 533.33 132 548.15 132 548.15 117.33 562.96 117.33 562.96 102.67 562.96 88 562.96 73.33 548.15 73.33 548.15 58.67 533.33 58.67 518.52 58.67 503.7 58.67 503.7 44 503.7 29.33 503.7 14.67 518.52 14.67 533.33 14.67 533.33 29.33 548.15 29.33 562.96 29.33 562.96 14.67 548.15 14.67 548.15 0" fill="#fff"/>
      <rect x="118.52" y="0" width="59.26" height="14.67" fill="#fff"/>
      <rect x="118.52" y="117.33" width="44.44" height="14.67" fill="#fff"/>
      <path d="m311.11,44V14.67h-14.81V0h-29.63v14.67h-14.82v29.33h-14.81v88h29.63v-44h29.63v44h29.63V44h-14.82Zm-14.81,14.67v14.67h-29.63v-29.33h0v-14.67h29.63v14.67h0v14.67Z" fill="#fff"/>
    </g>
  </g>
</svg>